<?xml version="1.0" encoding="UTF-8"?>
<svg xmlns="http://www.w3.org/2000/svg" width="100%" height="100%" viewBox="0 0 1700 720" preserveAspectRatio="xMidYMid meet">
<style>
text { font-family: -apple-system, BlinkMacSystemFont, 'Segoe UI', sans-serif; fill: #1a1a1a; }
.title { font-size: 18px; font-weight: 600; }
.cat { font-size: 18px; font-weight: 500; }
.val { font-size: 18px; font-weight: 600; fill: #1a1a1a; }
.pct { font-size: 18px; fill: #666; }
</style>

<rect x="280" y="50.0" width="1240.0" height="65.4" rx="4" fill="#1a3a52"/>
<text x="266" y="87.7" class="cat" text-anchor="end">Karadeniz</text>
<text x="1530.0" y="87.7" class="val">209,033 <tspan class="pct">(%38.3)</tspan></text>
<rect x="280" y="137.1" width="672.5" height="65.4" rx="4" fill="#1a3a52"/>
<text x="266" y="174.8" class="cat" text-anchor="end">Doğu Anadolu</text>
<text x="962.5" y="174.8" class="val">113,369 <tspan class="pct">(%20.8)</tspan></text>
<rect x="280" y="224.3" width="536.1" height="65.4" rx="4" fill="#1a3a52"/>
<text x="266" y="262.0" class="cat" text-anchor="end">Marmara</text>
<text x="826.1" y="262.0" class="val">90,365 <tspan class="pct">(%16.6)</tspan></text>
<rect x="280" y="311.4" width="484.7" height="65.4" rx="4" fill="#1a3a52"/>
<text x="266" y="349.1" class="cat" text-anchor="end">İç Anadolu</text>
<text x="774.7" y="349.1" class="val">81,715 <tspan class="pct">(%15.0)</tspan></text>
<rect x="280" y="398.6" width="117.8" height="65.4" rx="4" fill="#1a3a52"/>
<text x="266" y="436.2" class="cat" text-anchor="end">Güneydoğu Anadolu</text>
<text x="407.8" y="436.2" class="val">19,866 <tspan class="pct">(%3.6)</tspan></text>
<rect x="280" y="485.7" width="93.4" height="65.4" rx="4" fill="#1a3a52"/>
<text x="266" y="523.4" class="cat" text-anchor="end">Akdeniz</text>
<text x="383.4" y="523.4" class="val">15,737 <tspan class="pct">(%2.9)</tspan></text>
<rect x="280" y="572.9" width="91.6" height="65.4" rx="4" fill="#1a3a52"/>
<text x="266" y="610.5" class="cat" text-anchor="end">Ege</text>
<text x="381.6" y="610.5" class="val">15,449 <tspan class="pct">(%2.8)</tspan></text>
</svg>