<?xml version="1.0" encoding="UTF-8"?>
<svg xmlns="http://www.w3.org/2000/svg" viewBox="0 0 1600 920" preserveAspectRatio="xMidYMid meet" width="100%" height="100%">
<text x="222.5" y="44" text-anchor="middle" font-size="26" font-family="Newsreader,serif" font-weight="600" fill="#1a1a1a">Pendik Geneli</text>
<text x="222.5" y="72" text-anchor="middle" font-size="15" font-family="Inter Tight,sans-serif" font-style="italic" fill="#666">37 mh · 547,235 seçmen</text>
<text x="195.0" y="140.3" text-anchor="end" font-size="17" font-family="Inter Tight,sans-serif" font-weight="600" fill="#FFC436">AK PARTİ</text>
<rect x="205.0" y="113.0" width="119.6" height="42.6" fill="#FFC436" rx="2"/>
<text x="332.6" y="140.3" font-size="16" font-family="Inter Tight,sans-serif" font-weight="700" fill="#1a1a1a">%35.8</text>
<text x="195.0" y="209.0" text-anchor="end" font-size="17" font-family="Inter Tight,sans-serif" font-weight="600" fill="#FE0000">CHP</text>
<rect x="205.0" y="181.7" width="73.6" height="42.6" fill="#FE0000" rx="2"/>
<text x="286.6" y="209.0" font-size="16" font-family="Inter Tight,sans-serif" font-weight="700" fill="#1a1a1a">%22.0</text>
<text x="195.0" y="277.6" text-anchor="end" font-size="17" font-family="Inter Tight,sans-serif" font-weight="600" fill="#11009E">MHP</text>
<rect x="205.0" y="250.3" width="23.7" height="42.6" fill="#11009E" rx="2"/>
<text x="236.7" y="277.6" font-size="16" font-family="Inter Tight,sans-serif" font-weight="700" fill="#1a1a1a">%7.1</text>
<text x="195.0" y="346.2" text-anchor="end" font-size="17" font-family="Inter Tight,sans-serif" font-weight="600" fill="#52D3D8">İYİ PARTİ</text>
<rect x="205.0" y="319.0" width="22.7" height="42.6" fill="#52D3D8" rx="2"/>
<text x="235.7" y="346.2" font-size="16" font-family="Inter Tight,sans-serif" font-weight="700" fill="#1a1a1a">%6.8</text>
<text x="195.0" y="414.9" text-anchor="end" font-size="17" font-family="Inter Tight,sans-serif" font-weight="600" fill="#8B1874">YEŞİL SOL PARTİ</text>
<rect x="205.0" y="387.6" width="16.2" height="42.6" fill="#8B1874" rx="2"/>
<text x="229.2" y="414.9" font-size="16" font-family="Inter Tight,sans-serif" font-weight="700" fill="#1a1a1a">%4.8</text>
<text x="195.0" y="483.5" text-anchor="end" font-size="17" font-family="Inter Tight,sans-serif" font-weight="600" fill="#65B741">YENİDEN REFAH</text>
<rect x="205.0" y="456.2" width="11.8" height="42.6" fill="#65B741" rx="2"/>
<text x="224.8" y="483.5" font-size="16" font-family="Inter Tight,sans-serif" font-weight="700" fill="#1a1a1a">%3.5</text>
<text x="195.0" y="552.1" text-anchor="end" font-size="17" font-family="Inter Tight,sans-serif" font-weight="600" fill="#765827">ZAFER PARTİSİ</text>
<rect x="205.0" y="524.9" width="9.8" height="42.6" fill="#765827" rx="2"/>
<text x="222.8" y="552.1" font-size="16" font-family="Inter Tight,sans-serif" font-weight="700" fill="#1a1a1a">%2.9</text>
<text x="195.0" y="620.8" text-anchor="end" font-size="17" font-family="Inter Tight,sans-serif" font-weight="600" fill="#C70039">TİP</text>
<rect x="205.0" y="593.5" width="9.4" height="42.6" fill="#C70039" rx="2"/>
<text x="222.4" y="620.8" font-size="16" font-family="Inter Tight,sans-serif" font-weight="700" fill="#1a1a1a">%2.8</text>
<text x="195.0" y="689.4" text-anchor="end" font-size="17" font-family="Inter Tight,sans-serif" font-weight="600" fill="#9a9a9a">Diğer</text>
<rect x="205.0" y="662.1" width="12.5" height="42.6" fill="#9a9a9a" rx="2"/>
<text x="225.5" y="689.4" font-size="16" font-family="Inter Tight,sans-serif" font-weight="700" fill="#1a1a1a">%3.7</text>
<text x="195.0" y="758.0" text-anchor="end" font-size="17" font-family="Inter Tight,sans-serif" font-weight="600" fill="#5d5d5d">Geçersiz</text>
<rect x="205.0" y="730.8" width="5.7" height="42.6" fill="#5d5d5d" rx="2"/>
<text x="218.7" y="758.0" font-size="16" font-family="Inter Tight,sans-serif" font-weight="700" fill="#1a1a1a">%1.7</text>
<text x="195.0" y="826.7" text-anchor="end" font-size="17" font-family="Inter Tight,sans-serif" font-weight="600" fill="#bdb1a0">Sandığa Gitmeyen</text>
<rect x="205.0" y="799.4" width="29.0" height="42.6" fill="#bdb1a0" rx="2"/>
<text x="242.0" y="826.7" font-size="16" font-family="Inter Tight,sans-serif" font-weight="700" fill="#1a1a1a">%8.7</text>
<text x="607.5" y="44" text-anchor="middle" font-size="26" font-family="Newsreader,serif" font-weight="600" fill="#1a1a1a">Düşük Gelir</text>
<text x="607.5" y="72" text-anchor="middle" font-size="15" font-family="Inter Tight,sans-serif" font-style="italic" fill="#666">27 mh · 462,903 seçmen</text>
<line x1="415.0" y1="100" x2="415.0" y2="855" stroke="#cfc8b8" stroke-width="1"/>
<rect x="590.0" y="113.0" width="125.3" height="42.6" fill="#FFC436" rx="2"/>
<text x="723.3" y="140.3" font-size="16" font-family="Inter Tight,sans-serif" font-weight="700" fill="#1a1a1a">%37.5</text>
<rect x="590.0" y="181.7" width="68.2" height="42.6" fill="#FE0000" rx="2"/>
<text x="666.2" y="209.0" font-size="16" font-family="Inter Tight,sans-serif" font-weight="700" fill="#1a1a1a">%20.4</text>
<rect x="590.0" y="250.3" width="24.7" height="42.6" fill="#11009E" rx="2"/>
<text x="622.7" y="277.6" font-size="16" font-family="Inter Tight,sans-serif" font-weight="700" fill="#1a1a1a">%7.4</text>
<rect x="590.0" y="319.0" width="20.9" height="42.6" fill="#52D3D8" rx="2"/>
<text x="618.9" y="346.2" font-size="16" font-family="Inter Tight,sans-serif" font-weight="700" fill="#1a1a1a">%6.3</text>
<rect x="590.0" y="387.6" width="17.2" height="42.6" fill="#8B1874" rx="2"/>
<text x="615.2" y="414.9" font-size="16" font-family="Inter Tight,sans-serif" font-weight="700" fill="#1a1a1a">%5.2</text>
<rect x="590.0" y="456.2" width="12.5" height="42.6" fill="#65B741" rx="2"/>
<text x="610.5" y="483.5" font-size="16" font-family="Inter Tight,sans-serif" font-weight="700" fill="#1a1a1a">%3.7</text>
<rect x="590.0" y="524.9" width="9.9" height="42.6" fill="#765827" rx="2"/>
<text x="607.9" y="552.1" font-size="16" font-family="Inter Tight,sans-serif" font-weight="700" fill="#1a1a1a">%3.0</text>
<rect x="590.0" y="593.5" width="8.5" height="42.6" fill="#C70039" rx="2"/>
<text x="606.5" y="620.8" font-size="16" font-family="Inter Tight,sans-serif" font-weight="700" fill="#1a1a1a">%2.5</text>
<rect x="590.0" y="662.1" width="12.6" height="42.6" fill="#9a9a9a" rx="2"/>
<text x="610.6" y="689.4" font-size="16" font-family="Inter Tight,sans-serif" font-weight="700" fill="#1a1a1a">%3.8</text>
<rect x="590.0" y="730.8" width="5.9" height="42.6" fill="#5d5d5d" rx="2"/>
<text x="603.9" y="758.0" font-size="16" font-family="Inter Tight,sans-serif" font-weight="700" fill="#1a1a1a">%1.8</text>
<rect x="590.0" y="799.4" width="28.3" height="42.6" fill="#bdb1a0" rx="2"/>
<text x="626.3" y="826.7" font-size="16" font-family="Inter Tight,sans-serif" font-weight="700" fill="#1a1a1a">%8.5</text>
<text x="992.5" y="44" text-anchor="middle" font-size="26" font-family="Newsreader,serif" font-weight="600" fill="#1a1a1a">Orta Gelir</text>
<text x="992.5" y="72" text-anchor="middle" font-size="15" font-family="Inter Tight,sans-serif" font-style="italic" fill="#666">4 mh · 81,416 seçmen</text>
<line x1="800.0" y1="100" x2="800.0" y2="855" stroke="#cfc8b8" stroke-width="1"/>
<rect x="975.0" y="113.0" width="86.7" height="42.6" fill="#FFC436" rx="2"/>
<text x="1069.7" y="140.3" font-size="16" font-family="Inter Tight,sans-serif" font-weight="700" fill="#1a1a1a">%25.9</text>
<rect x="975.0" y="181.7" width="105.0" height="42.6" fill="#FE0000" rx="2"/>
<text x="1088.0" y="209.0" font-size="16" font-family="Inter Tight,sans-serif" font-weight="700" fill="#1a1a1a">%31.4</text>
<rect x="975.0" y="250.3" width="18.1" height="42.6" fill="#11009E" rx="2"/>
<text x="1001.1" y="277.6" font-size="16" font-family="Inter Tight,sans-serif" font-weight="700" fill="#1a1a1a">%5.4</text>
<rect x="975.0" y="319.0" width="33.0" height="42.6" fill="#52D3D8" rx="2"/>
<text x="1016.0" y="346.2" font-size="16" font-family="Inter Tight,sans-serif" font-weight="700" fill="#1a1a1a">%9.9</text>
<rect x="975.0" y="387.6" width="10.3" height="42.6" fill="#8B1874" rx="2"/>
<text x="993.3" y="414.9" font-size="16" font-family="Inter Tight,sans-serif" font-weight="700" fill="#1a1a1a">%3.1</text>
<rect x="975.0" y="456.2" width="7.8" height="42.6" fill="#65B741" rx="2"/>
<text x="990.8" y="483.5" font-size="16" font-family="Inter Tight,sans-serif" font-weight="700" fill="#1a1a1a">%2.3</text>
<rect x="975.0" y="524.9" width="9.4" height="42.6" fill="#765827" rx="2"/>
<text x="992.4" y="552.1" font-size="16" font-family="Inter Tight,sans-serif" font-weight="700" fill="#1a1a1a">%2.8</text>
<rect x="975.0" y="593.5" width="14.7" height="42.6" fill="#C70039" rx="2"/>
<text x="997.7" y="620.8" font-size="16" font-family="Inter Tight,sans-serif" font-weight="700" fill="#1a1a1a">%4.4</text>
<rect x="975.0" y="662.1" width="11.9" height="42.6" fill="#9a9a9a" rx="2"/>
<text x="994.9" y="689.4" font-size="16" font-family="Inter Tight,sans-serif" font-weight="700" fill="#1a1a1a">%3.6</text>
<rect x="975.0" y="730.8" width="4.3" height="42.6" fill="#5d5d5d" rx="2"/>
<text x="987.3" y="758.0" font-size="16" font-family="Inter Tight,sans-serif" font-weight="700" fill="#1a1a1a">%1.3</text>
<rect x="975.0" y="799.4" width="32.9" height="42.6" fill="#bdb1a0" rx="2"/>
<text x="1015.9" y="826.7" font-size="16" font-family="Inter Tight,sans-serif" font-weight="700" fill="#1a1a1a">%9.9</text>
<text x="1377.5" y="44" text-anchor="middle" font-size="26" font-family="Newsreader,serif" font-weight="600" fill="#1a1a1a">Taşra</text>
<text x="1377.5" y="72" text-anchor="middle" font-size="15" font-family="Inter Tight,sans-serif" font-style="italic" fill="#666">6 mh · 2,916 seçmen</text>
<line x1="1185.0" y1="100" x2="1185.0" y2="855" stroke="#cfc8b8" stroke-width="1"/>
<rect x="1360.0" y="113.0" width="140.0" height="42.6" fill="#FFC436" rx="2"/>
<text x="1508.0" y="140.3" font-size="16" font-family="Inter Tight,sans-serif" font-weight="700" fill="#1a1a1a">%41.9</text>
<rect x="1360.0" y="181.7" width="54.8" height="42.6" fill="#FE0000" rx="2"/>
<text x="1422.8" y="209.0" font-size="16" font-family="Inter Tight,sans-serif" font-weight="700" fill="#1a1a1a">%16.4</text>
<rect x="1360.0" y="250.3" width="32.1" height="42.6" fill="#11009E" rx="2"/>
<text x="1400.1" y="277.6" font-size="16" font-family="Inter Tight,sans-serif" font-weight="700" fill="#1a1a1a">%9.6</text>
<rect x="1360.0" y="319.0" width="23.0" height="42.6" fill="#52D3D8" rx="2"/>
<text x="1391.0" y="346.2" font-size="16" font-family="Inter Tight,sans-serif" font-weight="700" fill="#1a1a1a">%6.9</text>
<rect x="1360.0" y="387.6" width="14.5" height="42.6" fill="#8B1874" rx="2"/>
<text x="1382.5" y="414.9" font-size="16" font-family="Inter Tight,sans-serif" font-weight="700" fill="#1a1a1a">%4.4</text>
<rect x="1360.0" y="456.2" width="15.1" height="42.6" fill="#65B741" rx="2"/>
<text x="1383.1" y="483.5" font-size="16" font-family="Inter Tight,sans-serif" font-weight="700" fill="#1a1a1a">%4.5</text>
<rect x="1360.0" y="524.9" width="8.6" height="42.6" fill="#765827" rx="2"/>
<text x="1376.6" y="552.1" font-size="16" font-family="Inter Tight,sans-serif" font-weight="700" fill="#1a1a1a">%2.6</text>
<rect x="1360.0" y="593.5" width="6.2" height="42.6" fill="#C70039" rx="2"/>
<text x="1374.2" y="620.8" font-size="16" font-family="Inter Tight,sans-serif" font-weight="700" fill="#1a1a1a">%1.9</text>
<rect x="1360.0" y="662.1" width="14.2" height="42.6" fill="#9a9a9a" rx="2"/>
<text x="1382.2" y="689.4" font-size="16" font-family="Inter Tight,sans-serif" font-weight="700" fill="#1a1a1a">%4.3</text>
<rect x="1360.0" y="730.8" width="8.5" height="42.6" fill="#5d5d5d" rx="2"/>
<text x="1376.5" y="758.0" font-size="16" font-family="Inter Tight,sans-serif" font-weight="700" fill="#1a1a1a">%2.5</text>
<rect x="1360.0" y="799.4" width="17.1" height="42.6" fill="#bdb1a0" rx="2"/>
<text x="1385.1" y="826.7" font-size="16" font-family="Inter Tight,sans-serif" font-weight="700" fill="#1a1a1a">%5.1</text>
</svg>
