<?xml version="1.0" encoding="UTF-8"?>
<svg xmlns="http://www.w3.org/2000/svg" viewBox="0 0 1600 620" preserveAspectRatio="xMidYMid meet" width="100%" height="100%">
<text x="800" y="40" text-anchor="middle" font-size="22" font-family="Inter Tight,sans-serif" font-weight="600" fill="#b91c1c">465.773 seçmen — 25 mahalle</text>
<g font-family="Inter Tight,sans-serif">
<g transform="translate(0,80)">
<text x="240" y="29" text-anchor="end" font-size="16" font-weight="600" fill="#FFC436">AK PARTİ</text>
<rect x="250" y="0" width="1023" height="40" fill="#FFC436" rx="2"/>
<text x="1281" y="29" font-size="16" font-weight="700" fill="#1a1a1a">%34.1</text>
</g>
<g transform="translate(0,128)">
<text x="240" y="29" text-anchor="end" font-size="16" font-weight="600" fill="#FE0000">CHP</text>
<rect x="250" y="0" width="906" height="40" fill="#FE0000" rx="2"/>
<text x="1164" y="29" font-size="16" font-weight="700" fill="#1a1a1a">%30.2</text>
</g>
<g transform="translate(0,176)">
<text x="240" y="29" text-anchor="end" font-size="16" font-weight="600" fill="#bdb1a0">Sandığa Gitmeyen</text>
<rect x="250" y="0" width="630" height="40" fill="#bdb1a0" rx="2"/>
<text x="888" y="29" font-size="16" font-weight="700" fill="#1a1a1a">%21.0</text>
</g>
<g transform="translate(0,224)">
<text x="240" y="29" text-anchor="end" font-size="16" font-weight="600" fill="#65B741">YENİDEN REFAH</text>
<rect x="250" y="0" width="111" height="40" fill="#65B741" rx="2"/>
<text x="369" y="29" font-size="16" font-weight="700" fill="#1a1a1a">%3.7</text>
</g>
<g transform="translate(0,272)">
<text x="240" y="29" text-anchor="end" font-size="16" font-weight="600" fill="#765827">ZAFER PARTİSİ</text>
<rect x="250" y="0" width="92" height="40" fill="#765827" rx="2"/>
<text x="350" y="29" font-size="16" font-weight="700" fill="#1a1a1a">%3.1</text>
</g>
<g transform="translate(0,320)">
<text x="240" y="29" text-anchor="end" font-size="16" font-weight="600" fill="#5d5d5d">Geçersiz</text>
<rect x="250" y="0" width="78" height="40" fill="#5d5d5d" rx="2"/>
<text x="336" y="29" font-size="16" font-weight="700" fill="#1a1a1a">%2.6</text>
</g>
<g transform="translate(0,368)">
<text x="240" y="29" text-anchor="end" font-size="16" font-weight="600" fill="#9a9a9a">Diğer</text>
<rect x="250" y="0" width="57" height="40" fill="#9a9a9a" rx="2"/>
<text x="315" y="29" font-size="16" font-weight="700" fill="#1a1a1a">%1.9</text>
</g>
<g transform="translate(0,416)">
<text x="240" y="29" text-anchor="end" font-size="16" font-weight="600" fill="#4F6F52">BÜYÜK BİRLİK</text>
<rect x="250" y="0" width="33" height="40" fill="#4F6F52" rx="2"/>
<text x="291" y="29" font-size="16" font-weight="700" fill="#1a1a1a">%1.1</text>
</g>
<g transform="translate(0,464)">
<text x="240" y="29" text-anchor="end" font-size="16" font-weight="600" fill="#6f4e7c">SAADET</text>
<rect x="250" y="0" width="33" height="40" fill="#6f4e7c" rx="2"/>
<text x="291" y="29" font-size="16" font-weight="700" fill="#1a1a1a">%1.1</text>
</g>
<g transform="translate(0,512)">
<text x="240" y="29" text-anchor="end" font-size="16" font-weight="600" fill="#52D3D8">İYİ PARTİ</text>
<rect x="250" y="0" width="30" height="40" fill="#52D3D8" rx="2"/>
<text x="288" y="29" font-size="16" font-weight="700" fill="#1a1a1a">%1.0</text>
</g>
<g transform="translate(0,560)">
<text x="240" y="29" text-anchor="end" font-size="16" font-weight="600" fill="#C70039">TİP</text>
<rect x="250" y="0" width="9" height="40" fill="#C70039" rx="2"/>
<text x="267" y="29" font-size="16" font-weight="700" fill="#1a1a1a">%0.3</text>
</g>
</g>
</svg>
