<?xml version="1.0" encoding="UTF-8"?>
<svg xmlns="http://www.w3.org/2000/svg" width="100%" height="100%" viewBox="0 0 1600 800" preserveAspectRatio="xMidYMid meet">
<style>
text { font-family: -apple-system, BlinkMacSystemFont, 'Segoe UI', sans-serif; fill: #1a1a1a; }
.title { font-size: 22px; font-weight: 700; }
.subtitle { font-size: 14px; fill: #555; }
.panel-title { font-size: 18px; font-weight: 600; }
.panel-sub { font-size: 12px; fill: #666; }
.cat { font-size: 12px; }
.val { font-size: 11px; font-weight: 600; }
.source { font-size: 11px; fill: #888; }
</style>


<text x="24.0" y="124" class="panel-title">Taşra</text>
<text x="24.0" y="142" class="panel-sub">n = 3,167 seçmen</text>
<text x="193.0" y="184.9" class="cat" text-anchor="end">PENDİK</text>
<rect x="199.0" y="156.0" width="72.7" height="49.7" rx="2" fill="#1a3a52"/>
<text x="277.7" y="184.9" class="val">27.3</text>
<text x="193.0" y="248.7" class="cat" text-anchor="end">İSTANBUL</text>
<rect x="199.0" y="219.8" width="16.6" height="49.7" rx="2" fill="#4a90b8"/>
<text x="221.6" y="248.7" class="val">6.2</text>
<text x="193.0" y="312.4" class="cat" text-anchor="end">MARMARA</text>
<rect x="199.0" y="283.6" width="13.9" height="49.7" rx="2" fill="#88b5cf"/>
<text x="218.9" y="312.4" class="val">5.2</text>
<text x="193.0" y="376.2" class="cat" text-anchor="end">KARADENİZ</text>
<rect x="199.0" y="347.3" width="103.4" height="49.7" rx="2" fill="#2a9d8f"/>
<text x="308.4" y="376.2" class="val">38.8</text>
<text x="193.0" y="440.0" class="cat" text-anchor="end">DOĞU ANADOLU</text>
<rect x="199.0" y="411.1" width="32.3" height="49.7" rx="2" fill="#e76f51"/>
<text x="237.3" y="440.0" class="val">12.1</text>
<text x="193.0" y="503.8" class="cat" text-anchor="end">İÇ ANADOLU</text>
<rect x="199.0" y="474.9" width="13.2" height="49.7" rx="2" fill="#e9c46a"/>
<text x="218.2" y="503.8" class="val">5.0</text>
<text x="193.0" y="567.5" class="cat" text-anchor="end">GÜNEYDOĞU ANADOLU</text>
<rect x="199.0" y="538.7" width="7.2" height="49.7" rx="2" fill="#9c6644"/>
<text x="212.2" y="567.5" class="val">2.7</text>
<text x="193.0" y="631.3" class="cat" text-anchor="end">AKDENİZ</text>
<rect x="199.0" y="602.4" width="3.4" height="49.7" rx="2" fill="#f4a261"/>
<text x="208.4" y="631.3" class="val">1.3</text>
<text x="193.0" y="695.1" class="cat" text-anchor="end">EGE</text>
<rect x="199.0" y="666.2" width="3.6" height="49.7" rx="2" fill="#588b8b"/>
<text x="208.6" y="695.1" class="val">1.4</text>
<text x="549.3" y="124" class="panel-title">Düşük gelir</text>
<text x="549.3" y="142" class="panel-sub">n = 460,646 seçmen</text>
<text x="718.3" y="184.9" class="cat" text-anchor="end">PENDİK</text>
<rect x="724.3" y="156.0" width="10.5" height="49.7" rx="2" fill="#1a3a52"/>
<text x="740.8" y="184.9" class="val">3.9</text>
<text x="718.3" y="248.7" class="cat" text-anchor="end">İSTANBUL</text>
<rect x="724.3" y="219.8" width="10.7" height="49.7" rx="2" fill="#4a90b8"/>
<text x="741.0" y="248.7" class="val">4.0</text>
<text x="718.3" y="312.4" class="cat" text-anchor="end">MARMARA</text>
<rect x="724.3" y="283.6" width="19.0" height="49.7" rx="2" fill="#88b5cf"/>
<text x="749.3" y="312.4" class="val">7.1</text>
<text x="718.3" y="376.2" class="cat" text-anchor="end">KARADENİZ</text>
<rect x="724.3" y="347.3" width="105.1" height="49.7" rx="2" fill="#2a9d8f"/>
<text x="835.4" y="376.2" class="val">39.5</text>
<text x="718.3" y="440.0" class="cat" text-anchor="end">DOĞU ANADOLU</text>
<rect x="724.3" y="411.1" width="57.4" height="49.7" rx="2" fill="#e76f51"/>
<text x="787.8" y="440.0" class="val">21.6</text>
<text x="718.3" y="503.8" class="cat" text-anchor="end">İÇ ANADOLU</text>
<rect x="724.3" y="474.9" width="40.4" height="49.7" rx="2" fill="#e9c46a"/>
<text x="770.7" y="503.8" class="val">15.2</text>
<text x="718.3" y="567.5" class="cat" text-anchor="end">GÜNEYDOĞU ANADOLU</text>
<rect x="724.3" y="538.7" width="9.5" height="49.7" rx="2" fill="#9c6644"/>
<text x="739.9" y="567.5" class="val">3.6</text>
<text x="718.3" y="631.3" class="cat" text-anchor="end">AKDENİZ</text>
<rect x="724.3" y="602.4" width="6.7" height="49.7" rx="2" fill="#f4a261"/>
<text x="737.0" y="631.3" class="val">2.5</text>
<text x="718.3" y="695.1" class="cat" text-anchor="end">EGE</text>
<rect x="724.3" y="666.2" width="7.1" height="49.7" rx="2" fill="#588b8b"/>
<text x="737.4" y="695.1" class="val">2.7</text>
<text x="1074.7" y="124" class="panel-title">Orta gelir</text>
<text x="1074.7" y="142" class="panel-sub">n = 81,721 seçmen</text>
<text x="1243.7" y="184.9" class="cat" text-anchor="end">PENDİK</text>
<rect x="1249.7" y="156.0" width="8.9" height="49.7" rx="2" fill="#1a3a52"/>
<text x="1264.6" y="184.9" class="val">3.4</text>
<text x="1243.7" y="248.7" class="cat" text-anchor="end">İSTANBUL</text>
<rect x="1249.7" y="219.8" width="29.6" height="49.7" rx="2" fill="#4a90b8"/>
<text x="1285.3" y="248.7" class="val">11.1</text>
<text x="1243.7" y="312.4" class="cat" text-anchor="end">MARMARA</text>
<rect x="1249.7" y="283.6" width="25.5" height="49.7" rx="2" fill="#88b5cf"/>
<text x="1281.2" y="312.4" class="val">9.6</text>
<text x="1243.7" y="376.2" class="cat" text-anchor="end">KARADENİZ</text>
<rect x="1249.7" y="347.3" width="85.0" height="49.7" rx="2" fill="#2a9d8f"/>
<text x="1340.6" y="376.2" class="val">31.9</text>
<text x="1243.7" y="440.0" class="cat" text-anchor="end">DOĞU ANADOLU</text>
<rect x="1249.7" y="411.1" width="44.6" height="49.7" rx="2" fill="#e76f51"/>
<text x="1300.2" y="440.0" class="val">16.7</text>
<text x="1243.7" y="503.8" class="cat" text-anchor="end">İÇ ANADOLU</text>
<rect x="1249.7" y="474.9" width="38.3" height="49.7" rx="2" fill="#e9c46a"/>
<text x="1294.0" y="503.8" class="val">14.4</text>
<text x="1243.7" y="567.5" class="cat" text-anchor="end">GÜNEYDOĞU ANADOLU</text>
<rect x="1249.7" y="538.7" width="10.7" height="49.7" rx="2" fill="#9c6644"/>
<text x="1266.4" y="567.5" class="val">4.0</text>
<text x="1243.7" y="631.3" class="cat" text-anchor="end">AKDENİZ</text>
<rect x="1249.7" y="602.4" width="13.4" height="49.7" rx="2" fill="#f4a261"/>
<text x="1269.0" y="631.3" class="val">5.0</text>
<text x="1243.7" y="695.1" class="cat" text-anchor="end">EGE</text>
<rect x="1249.7" y="666.2" width="10.4" height="49.7" rx="2" fill="#588b8b"/>
<text x="1266.0" y="695.1" class="val">3.9</text>
<text x="40" y="782" class="source">Kaynak: YSK seçmen kütüğü, Endeksa, yazarın hesaplamaları</text>
</svg>