<?xml version="1.0" encoding="UTF-8"?>
<svg xmlns="http://www.w3.org/2000/svg" width="100%" height="100%" viewBox="0 0 1950 800" preserveAspectRatio="xMidYMid meet">
<style>
text { font-family: -apple-system, BlinkMacSystemFont, 'Segoe UI', sans-serif; fill: #1a1a1a; }
.title { font-size: 22px; font-weight: 700; }
.subtitle { font-size: 14px; fill: #555; }
.panel-title { font-size: 26px; font-weight: 600; }
.panel-sub { font-size: 22px; fill: #666; }
.cat { font-size: 22px; }
.val { font-size: 22px; font-weight: 600; }
.source { font-size: 22px; fill: #888; }
</style>


<text x="24.0" y="64" class="panel-title">Taşra</text>
<text x="24.0" y="92" class="panel-sub">n = 3,167 seçmen</text>
<text x="193.0" y="148" class="cat" text-anchor="end">Pendik</text>
<rect x="199.0" y="120" width="205.8" height="56" rx="2" fill="#1a3a52"/>
<text x="411.3" y="148" class="val">27.3</text>
<text x="193.0" y="218" class="cat" text-anchor="end">İstanbul</text>
<rect x="199.0" y="190" width="47.0" height="56" rx="2" fill="#1a3a52"/>
<text x="252.5" y="218" class="val">6.2</text>
<text x="193.0" y="288" class="cat" text-anchor="end">Marmara</text>
<rect x="199.0" y="260" width="39.4" height="56" rx="2" fill="#1a3a52"/>
<text x="244.9" y="288" class="val">5.2</text>
<text x="193.0" y="358" class="cat" text-anchor="end">Karadeniz</text>
<rect x="199.0" y="330" width="292.6" height="56" rx="2" fill="#1a3a52"/>
<text x="498.1" y="358" class="val">38.8</text>
<text x="193.0" y="428" class="cat" text-anchor="end">Doğu Anadolu</text>
<rect x="199.0" y="400" width="91.4" height="56" rx="2" fill="#1a3a52"/>
<text x="296.9" y="428" class="val">12.1</text>
<text x="193.0" y="498" class="cat" text-anchor="end">İç Anadolu</text>
<rect x="199.0" y="470" width="37.4" height="56" rx="2" fill="#1a3a52"/>
<text x="242.9" y="498" class="val">5.0</text>
<text x="193.0" y="568" class="cat" text-anchor="end">Güneydoğu Anadolu</text>
<rect x="199.0" y="540" width="20.4" height="56" rx="2" fill="#1a3a52"/>
<text x="225.9" y="568" class="val">2.7</text>
<text x="193.0" y="638" class="cat" text-anchor="end">Akdeniz</text>
<rect x="199.0" y="610" width="9.6" height="56" rx="2" fill="#1a3a52"/>
<text x="215.1" y="638" class="val">1.3</text>
<text x="193.0" y="708" class="cat" text-anchor="end">Ege</text>
<rect x="199.0" y="680" width="10.2" height="56" rx="2" fill="#1a3a52"/>
<text x="215.7" y="708" class="val">1.4</text>
<text x="724.3" y="64" class="panel-title">Düşük gelir</text>
<text x="724.3" y="92" class="panel-sub">n = 460,646 seçmen</text>
<text x="893.3" y="148" class="cat" text-anchor="end">Pendik</text>
<rect x="899.3" y="120" width="29.7" height="56" rx="2" fill="#1a3a52"/>
<text x="935.5" y="148" class="val">3.9</text>
<text x="893.3" y="218" class="cat" text-anchor="end">İstanbul</text>
<rect x="899.3" y="190" width="30.3" height="56" rx="2" fill="#1a3a52"/>
<text x="936.1" y="218" class="val">4.0</text>
<text x="893.3" y="288" class="cat" text-anchor="end">Marmara</text>
<rect x="899.3" y="260" width="53.8" height="56" rx="2" fill="#1a3a52"/>
<text x="959.6" y="288" class="val">7.1</text>
<text x="893.3" y="358" class="cat" text-anchor="end">Karadeniz</text>
<rect x="899.3" y="330" width="297.4" height="56" rx="2" fill="#1a3a52"/>
<text x="1203.2" y="358" class="val">39.5</text>
<text x="893.3" y="428" class="cat" text-anchor="end">Doğu Anadolu</text>
<rect x="899.3" y="400" width="162.4" height="56" rx="2" fill="#1a3a52"/>
<text x="1068.2" y="428" class="val">21.6</text>
<text x="893.3" y="498" class="cat" text-anchor="end">İç Anadolu</text>
<rect x="899.3" y="470" width="114.3" height="56" rx="2" fill="#1a3a52"/>
<text x="1020.1" y="498" class="val">15.2</text>
<text x="893.3" y="568" class="cat" text-anchor="end">Güneydoğu Anadolu</text>
<rect x="899.3" y="540" width="26.9" height="56" rx="2" fill="#1a3a52"/>
<text x="932.7" y="568" class="val">3.6</text>
<text x="893.3" y="638" class="cat" text-anchor="end">Akdeniz</text>
<rect x="899.3" y="610" width="18.9" height="56" rx="2" fill="#1a3a52"/>
<text x="924.7" y="638" class="val">2.5</text>
<text x="893.3" y="708" class="cat" text-anchor="end">Ege</text>
<rect x="899.3" y="680" width="20.1" height="56" rx="2" fill="#1a3a52"/>
<text x="925.9" y="708" class="val">2.7</text>
<text x="1423.7" y="64" class="panel-title">Orta gelir</text>
<text x="1423.7" y="92" class="panel-sub">n = 81,721 seçmen</text>
<text x="1592.7" y="148" class="cat" text-anchor="end">Pendik</text>
<rect x="1598.7" y="120" width="25.2" height="56" rx="2" fill="#1a3a52"/>
<text x="1630.4" y="148" class="val">3.4</text>
<text x="1592.7" y="218" class="cat" text-anchor="end">İstanbul</text>
<rect x="1598.7" y="190" width="83.8" height="56" rx="2" fill="#1a3a52"/>
<text x="1689.0" y="218" class="val">11.1</text>
<text x="1592.7" y="288" class="cat" text-anchor="end">Marmara</text>
<rect x="1598.7" y="260" width="72.2" height="56" rx="2" fill="#1a3a52"/>
<text x="1677.4" y="288" class="val">9.6</text>
<text x="1592.7" y="358" class="cat" text-anchor="end">Karadeniz</text>
<rect x="1598.7" y="330" width="240.6" height="56" rx="2" fill="#1a3a52"/>
<text x="1845.8" y="358" class="val">31.9</text>
<text x="1592.7" y="428" class="cat" text-anchor="end">Doğu Anadolu</text>
<rect x="1598.7" y="400" width="126.2" height="56" rx="2" fill="#1a3a52"/>
<text x="1731.4" y="428" class="val">16.7</text>
<text x="1592.7" y="498" class="cat" text-anchor="end">İç Anadolu</text>
<rect x="1598.7" y="470" width="108.4" height="56" rx="2" fill="#1a3a52"/>
<text x="1713.6" y="498" class="val">14.4</text>
<text x="1592.7" y="568" class="cat" text-anchor="end">Güneydoğu Anadolu</text>
<rect x="1598.7" y="540" width="30.3" height="56" rx="2" fill="#1a3a52"/>
<text x="1635.5" y="568" class="val">4.0</text>
<text x="1592.7" y="638" class="cat" text-anchor="end">Akdeniz</text>
<rect x="1598.7" y="610" width="37.9" height="56" rx="2" fill="#1a3a52"/>
<text x="1643.1" y="638" class="val">5.0</text>
<text x="1592.7" y="708" class="cat" text-anchor="end">Ege</text>
<rect x="1598.7" y="680" width="29.4" height="56" rx="2" fill="#1a3a52"/>
<text x="1634.6" y="708" class="val">3.9</text>
<text x="40.0" y="754" class="source">Kaynak: YSK seçmen kütüğü, Endeksa, yazarın hesaplamaları</text>
</svg>