<?xml version="1.0" encoding="UTF-8"?>
<svg xmlns="http://www.w3.org/2000/svg" viewBox="0 0 1600 920" preserveAspectRatio="xMidYMid meet" width="100%" height="100%">
<text x="222.5" y="44" text-anchor="middle" font-size="26" font-family="Newsreader,serif" font-weight="600" fill="#1a1a1a">Pendik Geneli</text>
<text x="222.5" y="72" text-anchor="middle" font-size="15" font-family="Inter Tight,sans-serif" font-style="italic" fill="#666">37 mh · 545,566 seçmen</text>
<text x="195.0" y="140.3" text-anchor="end" font-size="17" font-family="Inter Tight,sans-serif" font-weight="600" fill="#FFC436">AK PARTİ</text>
<rect x="205.0" y="113.0" width="113.8" height="42.6" fill="#FFC436" rx="2"/>
<text x="326.8" y="140.3" font-size="16" font-family="Inter Tight,sans-serif" font-weight="700" fill="#1a1a1a">%33.3</text>
<text x="195.0" y="209.0" text-anchor="end" font-size="17" font-family="Inter Tight,sans-serif" font-weight="600" fill="#FE0000">CHP</text>
<rect x="205.0" y="181.7" width="108.6" height="42.6" fill="#FE0000" rx="2"/>
<text x="321.6" y="209.0" font-size="16" font-family="Inter Tight,sans-serif" font-weight="700" fill="#1a1a1a">%31.7</text>
<text x="195.0" y="277.6" text-anchor="end" font-size="17" font-family="Inter Tight,sans-serif" font-weight="600" fill="#65B741">YENİDEN REFAH</text>
<rect x="205.0" y="250.3" width="11.9" height="42.6" fill="#65B741" rx="2"/>
<text x="224.9" y="277.6" font-size="16" font-family="Inter Tight,sans-serif" font-weight="700" fill="#1a1a1a">%3.5</text>
<text x="195.0" y="346.2" text-anchor="end" font-size="17" font-family="Inter Tight,sans-serif" font-weight="600" fill="#765827">ZAFER PARTİSİ</text>
<rect x="205.0" y="319.0" width="10.5" height="42.6" fill="#765827" rx="2"/>
<text x="223.5" y="346.2" font-size="16" font-family="Inter Tight,sans-serif" font-weight="700" fill="#1a1a1a">%3.1</text>
<text x="195.0" y="414.9" text-anchor="end" font-size="17" font-family="Inter Tight,sans-serif" font-weight="600" fill="#6f4e7c">SAADET</text>
<rect x="205.0" y="387.6" width="3.6" height="42.6" fill="#6f4e7c" rx="2"/>
<text x="216.6" y="414.9" font-size="16" font-family="Inter Tight,sans-serif" font-weight="700" fill="#1a1a1a">%1.1</text>
<text x="195.0" y="483.5" text-anchor="end" font-size="17" font-family="Inter Tight,sans-serif" font-weight="600" fill="#52D3D8">İYİ PARTİ</text>
<rect x="205.0" y="456.2" width="3.6" height="42.6" fill="#52D3D8" rx="2"/>
<text x="216.6" y="483.5" font-size="16" font-family="Inter Tight,sans-serif" font-weight="700" fill="#1a1a1a">%1.1</text>
<text x="195.0" y="552.1" text-anchor="end" font-size="17" font-family="Inter Tight,sans-serif" font-weight="600" fill="#4F6F52">BÜYÜK BİRLİK</text>
<rect x="205.0" y="524.9" width="3.5" height="42.6" fill="#4F6F52" rx="2"/>
<text x="216.5" y="552.1" font-size="16" font-family="Inter Tight,sans-serif" font-weight="700" fill="#1a1a1a">%1.0</text>
<text x="195.0" y="620.8" text-anchor="end" font-size="17" font-family="Inter Tight,sans-serif" font-weight="600" fill="#C70039">TİP</text>
<rect x="205.0" y="593.5" width="1.2" height="42.6" fill="#C70039" rx="2"/>
<text x="214.2" y="620.8" font-size="16" font-family="Inter Tight,sans-serif" font-weight="700" fill="#1a1a1a">%0.4</text>
<text x="195.0" y="689.4" text-anchor="end" font-size="17" font-family="Inter Tight,sans-serif" font-weight="600" fill="#9a9a9a">Diğer</text>
<rect x="205.0" y="662.1" width="6.2" height="42.6" fill="#9a9a9a" rx="2"/>
<text x="219.2" y="689.4" font-size="16" font-family="Inter Tight,sans-serif" font-weight="700" fill="#1a1a1a">%1.8</text>
<text x="195.0" y="758.0" text-anchor="end" font-size="17" font-family="Inter Tight,sans-serif" font-weight="600" fill="#5d5d5d">Geçersiz</text>
<rect x="205.0" y="730.8" width="8.7" height="42.6" fill="#5d5d5d" rx="2"/>
<text x="221.7" y="758.0" font-size="16" font-family="Inter Tight,sans-serif" font-weight="700" fill="#1a1a1a">%2.5</text>
<text x="195.0" y="826.7" text-anchor="end" font-size="17" font-family="Inter Tight,sans-serif" font-weight="600" fill="#bdb1a0">Sandığa Gitmeyen</text>
<rect x="205.0" y="799.4" width="70.5" height="42.6" fill="#bdb1a0" rx="2"/>
<text x="283.5" y="826.7" font-size="16" font-family="Inter Tight,sans-serif" font-weight="700" fill="#1a1a1a">%20.6</text>
<text x="607.5" y="44" text-anchor="middle" font-size="26" font-family="Newsreader,serif" font-weight="600" fill="#1a1a1a">Düşük Gelir</text>
<text x="607.5" y="72" text-anchor="middle" font-size="15" font-family="Inter Tight,sans-serif" font-style="italic" fill="#666">27 mh · 460,658 seçmen</text>
<line x1="415.0" y1="100" x2="415.0" y2="855" stroke="#cfc8b8" stroke-width="1"/>
<rect x="590.0" y="113.0" width="118.8" height="42.6" fill="#FFC436" rx="2"/>
<text x="716.8" y="140.3" font-size="16" font-family="Inter Tight,sans-serif" font-weight="700" fill="#1a1a1a">%34.7</text>
<rect x="590.0" y="181.7" width="103.0" height="42.6" fill="#FE0000" rx="2"/>
<text x="701.0" y="209.0" font-size="16" font-family="Inter Tight,sans-serif" font-weight="700" fill="#1a1a1a">%30.1</text>
<rect x="590.0" y="250.3" width="12.7" height="42.6" fill="#65B741" rx="2"/>
<text x="610.7" y="277.6" font-size="16" font-family="Inter Tight,sans-serif" font-weight="700" fill="#1a1a1a">%3.7</text>
<rect x="590.0" y="319.0" width="10.2" height="42.6" fill="#765827" rx="2"/>
<text x="608.2" y="346.2" font-size="16" font-family="Inter Tight,sans-serif" font-weight="700" fill="#1a1a1a">%3.0</text>
<rect x="590.0" y="387.6" width="3.8" height="42.6" fill="#6f4e7c" rx="2"/>
<text x="601.8" y="414.9" font-size="16" font-family="Inter Tight,sans-serif" font-weight="700" fill="#1a1a1a">%1.1</text>
<rect x="590.0" y="456.2" width="3.4" height="42.6" fill="#52D3D8" rx="2"/>
<text x="601.4" y="483.5" font-size="16" font-family="Inter Tight,sans-serif" font-weight="700" fill="#1a1a1a">%1.0</text>
<rect x="590.0" y="524.9" width="3.7" height="42.6" fill="#4F6F52" rx="2"/>
<text x="601.7" y="552.1" font-size="16" font-family="Inter Tight,sans-serif" font-weight="700" fill="#1a1a1a">%1.1</text>
<rect x="590.0" y="593.5" width="1.1" height="42.6" fill="#C70039" rx="2"/>
<text x="599.1" y="620.8" font-size="16" font-family="Inter Tight,sans-serif" font-weight="700" fill="#1a1a1a">%0.3</text>
<rect x="590.0" y="662.1" width="6.3" height="42.6" fill="#9a9a9a" rx="2"/>
<text x="604.3" y="689.4" font-size="16" font-family="Inter Tight,sans-serif" font-weight="700" fill="#1a1a1a">%1.8</text>
<rect x="590.0" y="730.8" width="9.1" height="42.6" fill="#5d5d5d" rx="2"/>
<text x="607.1" y="758.0" font-size="16" font-family="Inter Tight,sans-serif" font-weight="700" fill="#1a1a1a">%2.7</text>
<rect x="590.0" y="799.4" width="70.0" height="42.6" fill="#bdb1a0" rx="2"/>
<text x="668.0" y="826.7" font-size="16" font-family="Inter Tight,sans-serif" font-weight="700" fill="#1a1a1a">%20.5</text>
<text x="992.5" y="44" text-anchor="middle" font-size="26" font-family="Newsreader,serif" font-weight="600" fill="#1a1a1a">Orta Gelir</text>
<text x="992.5" y="72" text-anchor="middle" font-size="15" font-family="Inter Tight,sans-serif" font-style="italic" fill="#666">4 mh · 81,724 seçmen</text>
<line x1="800.0" y1="100" x2="800.0" y2="855" stroke="#cfc8b8" stroke-width="1"/>
<rect x="975.0" y="113.0" width="85.2" height="42.6" fill="#FFC436" rx="2"/>
<text x="1068.2" y="140.3" font-size="16" font-family="Inter Tight,sans-serif" font-weight="700" fill="#1a1a1a">%24.9</text>
<rect x="975.0" y="181.7" width="140.0" height="42.6" fill="#FE0000" rx="2"/>
<text x="1123.0" y="209.0" font-size="16" font-family="Inter Tight,sans-serif" font-weight="700" fill="#1a1a1a">%40.9</text>
<rect x="975.0" y="250.3" width="7.3" height="42.6" fill="#65B741" rx="2"/>
<text x="990.3" y="277.6" font-size="16" font-family="Inter Tight,sans-serif" font-weight="700" fill="#1a1a1a">%2.1</text>
<rect x="975.0" y="319.0" width="12.2" height="42.6" fill="#765827" rx="2"/>
<text x="995.2" y="346.2" font-size="16" font-family="Inter Tight,sans-serif" font-weight="700" fill="#1a1a1a">%3.6</text>
<rect x="975.0" y="387.6" width="2.7" height="42.6" fill="#6f4e7c" rx="2"/>
<text x="985.7" y="414.9" font-size="16" font-family="Inter Tight,sans-serif" font-weight="700" fill="#1a1a1a">%0.8</text>
<rect x="975.0" y="456.2" width="4.5" height="42.6" fill="#52D3D8" rx="2"/>
<text x="987.5" y="483.5" font-size="16" font-family="Inter Tight,sans-serif" font-weight="700" fill="#1a1a1a">%1.3</text>
<rect x="975.0" y="524.9" width="2.6" height="42.6" fill="#4F6F52" rx="2"/>
<text x="985.6" y="552.1" font-size="16" font-family="Inter Tight,sans-serif" font-weight="700" fill="#1a1a1a">%0.8</text>
<rect x="975.0" y="593.5" width="1.6" height="42.6" fill="#C70039" rx="2"/>
<text x="984.6" y="620.8" font-size="16" font-family="Inter Tight,sans-serif" font-weight="700" fill="#1a1a1a">%0.5</text>
<rect x="975.0" y="662.1" width="5.7" height="42.6" fill="#9a9a9a" rx="2"/>
<text x="988.7" y="689.4" font-size="16" font-family="Inter Tight,sans-serif" font-weight="700" fill="#1a1a1a">%1.7</text>
<rect x="975.0" y="730.8" width="5.8" height="42.6" fill="#5d5d5d" rx="2"/>
<text x="988.8" y="758.0" font-size="16" font-family="Inter Tight,sans-serif" font-weight="700" fill="#1a1a1a">%1.7</text>
<rect x="975.0" y="799.4" width="74.6" height="42.6" fill="#bdb1a0" rx="2"/>
<text x="1057.6" y="826.7" font-size="16" font-family="Inter Tight,sans-serif" font-weight="700" fill="#1a1a1a">%21.8</text>
<text x="1377.5" y="44" text-anchor="middle" font-size="26" font-family="Newsreader,serif" font-weight="600" fill="#1a1a1a">Taşra</text>
<text x="1377.5" y="72" text-anchor="middle" font-size="15" font-family="Inter Tight,sans-serif" font-style="italic" fill="#666">6 mh · 3,184 seçmen</text>
<line x1="1185.0" y1="100" x2="1185.0" y2="855" stroke="#cfc8b8" stroke-width="1"/>
<rect x="1360.0" y="113.0" width="130.9" height="42.6" fill="#FFC436" rx="2"/>
<text x="1498.9" y="140.3" font-size="16" font-family="Inter Tight,sans-serif" font-weight="700" fill="#1a1a1a">%38.3</text>
<rect x="1360.0" y="181.7" width="119.1" height="42.6" fill="#FE0000" rx="2"/>
<text x="1487.1" y="209.0" font-size="16" font-family="Inter Tight,sans-serif" font-weight="700" fill="#1a1a1a">%34.8</text>
<rect x="1360.0" y="250.3" width="11.9" height="42.6" fill="#65B741" rx="2"/>
<text x="1379.9" y="277.6" font-size="16" font-family="Inter Tight,sans-serif" font-weight="700" fill="#1a1a1a">%3.5</text>
<rect x="1360.0" y="319.0" width="6.9" height="42.6" fill="#765827" rx="2"/>
<text x="1374.9" y="346.2" font-size="16" font-family="Inter Tight,sans-serif" font-weight="700" fill="#1a1a1a">%2.0</text>
<rect x="1360.0" y="387.6" width="2.6" height="42.6" fill="#6f4e7c" rx="2"/>
<text x="1370.6" y="414.9" font-size="16" font-family="Inter Tight,sans-serif" font-weight="700" fill="#1a1a1a">%0.8</text>
<rect x="1360.0" y="456.2" width="11.6" height="42.6" fill="#52D3D8" rx="2"/>
<text x="1379.6" y="483.5" font-size="16" font-family="Inter Tight,sans-serif" font-weight="700" fill="#1a1a1a">%3.4</text>
<rect x="1360.0" y="524.9" width="2.7" height="42.6" fill="#4F6F52" rx="2"/>
<text x="1370.7" y="552.1" font-size="16" font-family="Inter Tight,sans-serif" font-weight="700" fill="#1a1a1a">%0.8</text>
<rect x="1360.0" y="593.5" width="0.5" height="42.6" fill="#C70039" rx="2"/>
<text x="1368.5" y="620.8" font-size="16" font-family="Inter Tight,sans-serif" font-weight="700" fill="#1a1a1a">%0.2</text>
<rect x="1360.0" y="662.1" width="6.3" height="42.6" fill="#9a9a9a" rx="2"/>
<text x="1374.3" y="689.4" font-size="16" font-family="Inter Tight,sans-serif" font-weight="700" fill="#1a1a1a">%1.9</text>
<rect x="1360.0" y="730.8" width="20.4" height="42.6" fill="#5d5d5d" rx="2"/>
<text x="1388.4" y="758.0" font-size="16" font-family="Inter Tight,sans-serif" font-weight="700" fill="#1a1a1a">%6.0</text>
<rect x="1360.0" y="799.4" width="29.2" height="42.6" fill="#bdb1a0" rx="2"/>
<text x="1397.2" y="826.7" font-size="16" font-family="Inter Tight,sans-serif" font-weight="700" fill="#1a1a1a">%8.5</text>
<line x1="205.0" y1="863" x2="345.0" y2="863" stroke="#999" stroke-width="0.6"/>
<text x="205.0" y="883" font-size="13" font-family="Inter Tight,sans-serif" fill="#666">0</text>
<text x="345.0" y="883" text-anchor="end" font-size="13" font-family="Inter Tight,sans-serif" fill="#666">%41</text>
<line x1="590.0" y1="863" x2="730.0" y2="863" stroke="#999" stroke-width="0.6"/>
<text x="590.0" y="883" font-size="13" font-family="Inter Tight,sans-serif" fill="#666">0</text>
<text x="730.0" y="883" text-anchor="end" font-size="13" font-family="Inter Tight,sans-serif" fill="#666">%41</text>
<line x1="975.0" y1="863" x2="1115.0" y2="863" stroke="#999" stroke-width="0.6"/>
<text x="975.0" y="883" font-size="13" font-family="Inter Tight,sans-serif" fill="#666">0</text>
<text x="1115.0" y="883" text-anchor="end" font-size="13" font-family="Inter Tight,sans-serif" fill="#666">%41</text>
<line x1="1360.0" y1="863" x2="1500.0" y2="863" stroke="#999" stroke-width="0.6"/>
<text x="1360.0" y="883" font-size="13" font-family="Inter Tight,sans-serif" fill="#666">0</text>
<text x="1500.0" y="883" text-anchor="end" font-size="13" font-family="Inter Tight,sans-serif" fill="#666">%41</text>
</svg>
